<?xml version="1.0" encoding="UTF-8" standalone="no"?>
<!-- Created with Inkscape (http://www.inkscape.org/) -->

<svg
   xmlns:dc="http://purl.org/dc/elements/1.1/"
   xmlns:cc="http://creativecommons.org/ns#"
   xmlns:rdf="http://www.w3.org/1999/02/22-rdf-syntax-ns#"
   xmlns:svg="http://www.w3.org/2000/svg"
   xmlns="http://www.w3.org/2000/svg"
   xmlns:sodipodi="http://sodipodi.sourceforge.net/DTD/sodipodi-0.dtd"
   xmlns:inkscape="http://www.inkscape.org/namespaces/inkscape"
   width="210mm"
   height="297mm"
   id="svg2"
   version="1.1"
   inkscape:version="0.48.4 r9939"
   sodipodi:docname="Scribbeln.svg">
  <defs
     id="defs4" />
  <sodipodi:namedview
     id="base"
     pagecolor="#ffffff"
     bordercolor="#666666"
     borderopacity="1.0"
     inkscape:pageopacity="0.0"
     inkscape:pageshadow="2"
     inkscape:zoom="0.7"
     inkscape:cx="128.65966"
     inkscape:cy="501.7774"
     inkscape:document-units="px"
     inkscape:current-layer="layer1"
     showgrid="false"
     inkscape:window-width="1600"
     inkscape:window-height="837"
     inkscape:window-x="-8"
     inkscape:window-y="-8"
     inkscape:window-maximized="1" />
  <metadata
     id="metadata7">
    <rdf:RDF>
      <cc:Work
         rdf:about="">
        <dc:format>image/svg+xml</dc:format>
        <dc:type
           rdf:resource="http://purl.org/dc/dcmitype/StillImage" />
        <dc:title></dc:title>
      </cc:Work>
    </rdf:RDF>
  </metadata>
  <g
     inkscape:label="Ebene 1"
     inkscape:groupmode="layer"
     id="layer1">
    <path
       style="fill:none;stroke:#000000;stroke-width:1px;stroke-linecap:butt;stroke-linejoin:miter;stroke-opacity:1"
       d="m 132.85714,149.50504 c 33.30036,41.78315 -9.69335,113.47043 11.42857,155.71429 19.49725,38.99449 315.65293,12.09735 357.14286,5.71428 23.3002,-3.58465 137.70157,2.29843 154.28572,-14.28571 C 666.18015,286.18203 660,248.281 660,233.79075 660,106.14129 537.38784,126.04525 430,132.36218 c -41.94073,2.4671 -83.9597,3.35211 -125.71429,8.57143 -72.73094,9.09137 -145.02619,11.36553 -212.857139,24.28572"
       id="path3029"
       inkscape:connector-curvature="0"
       inkscape:export-filename="F:\Dokumente\Publikationen\OpenBooks\05 Freeware\images\Scribus\path3065-5.png"
       inkscape:export-xdpi="300"
       inkscape:export-ydpi="300" />
    <path
       style="fill:none;stroke:#000000;stroke-width:1.06802201px;stroke-linecap:butt;stroke-linejoin:miter;stroke-opacity:1"
       d="m 140.03248,303.82476 c 9.06436,60.39661 5.71354,122.7606 5.71354,184.16103 0,75.53657 12.20172,160.04683 2.85676,234.68305 -1.73176,13.83119 -26.98113,101.13433 -18.56899,105.93333 117.36092,66.95265 312.21435,1.62975 439.94232,1.62975 15.14366,0 49.78012,8.6355 58.56375,-11.4082 20.30882,-46.34352 18.56899,-419.20704 18.56899,-495.44203"
       id="path3031"
       inkscape:connector-curvature="0"
       inkscape:export-filename="F:\Dokumente\Publikationen\OpenBooks\05 Freeware\images\Scribus\path3065-5.png"
       inkscape:export-xdpi="300"
       inkscape:export-ydpi="300" />
    <path
       style="fill:none;stroke:#000000;stroke-width:0.76392704px;stroke-linecap:butt;stroke-linejoin:miter;stroke-opacity:1"
       d="m 128.45339,838.67262 c 8.14725,61.16054 -24.91138,96.66475 91.46977,96.66475 76.61023,0 150.19164,-7.99198 225.81598,-11.66644 40.09154,-1.94798 153.51637,5.489 181.51032,-10.83312 19.35546,-11.28538 33.65844,-58.24834 20.00901,-74.16519 -4.37878,-5.10617 -43.52628,-4.95207 -44.30568,-4.9999"
       id="path3033"
       inkscape:connector-curvature="0"
       inkscape:export-filename="F:\Dokumente\Publikationen\OpenBooks\05 Freeware\images\Scribus\path3065-5.png"
       inkscape:export-xdpi="300"
       inkscape:export-ydpi="300" />
    <path
       style="fill:none;stroke:#000000;stroke-width:1px;stroke-linecap:butt;stroke-linejoin:miter;stroke-opacity:1"
       d="m 182.85714,198.07647 c 14.02506,7.06576 40.39896,16.05749 58.57143,10 4.47214,-1.49071 10,-14.71405 10,-10 0,35.38322 -29.16214,141.67571 -67.14286,65.71428 -5.20575,-10.4115 104.45758,-24.45757 110,-30 39.01452,-39.01451 -64.84925,-22.55565 -37.14285,32.85715 12.04801,24.09603 30.49821,-8.07322 25.71428,-12.85715 -12.10058,-12.10058 -10.00914,31.90781 0,28.57143 3.31366,-1.10455 32.85715,-24.93783 32.85715,-22.85714 0,2.9012 -26.00668,8.27904 -2.85715,31.42857 C 313.3299,291.40637 320,266.06372 320,262.36218 c 0,-6.09821 9.97363,15.74066 14.28571,11.42857 5.71429,-5.71428 17.14286,-25.22407 17.14286,-17.14285 0,3.92676 -10.18682,-0.86812 -11.42857,2.85714 -5.95624,17.86872 12.47651,26.85617 18.57143,8.57143 6.27192,-18.81576 8.57143,-30.92166 8.57143,-51.42857 0,-4.76191 0,-19.04762 0,-14.28572 0,24.00863 1.94517,66.23089 18.57143,82.85715 11.25103,11.25103 19.65481,-38.22624 12.85714,-31.42858 -4.03718,4.03718 0.88867,27.41281 10,22.85715 7.85353,-3.92677 17.14286,-28.78052 17.14286,-20 0,7.07908 7.14285,27.07908 7.14285,20 0,-26.47751 18.80925,-16.38866 30,-25.71429"
       id="path3043"
       inkscape:connector-curvature="0"
       inkscape:export-filename="F:\Dokumente\Publikationen\OpenBooks\05 Freeware\images\Scribus\path3065-5.png"
       inkscape:export-xdpi="300"
       inkscape:export-ydpi="300" />
    <path
       style="fill:none;stroke:#000000;stroke-width:0.90814978px;stroke-linecap:butt;stroke-linejoin:miter;stroke-opacity:1"
       d="m 189.96267,859.23133 c 11.60637,17.36773 10.97476,43.06204 8.57415,58.89107"
       id="path3045"
       inkscape:connector-curvature="0"
       inkscape:export-filename="F:\Dokumente\Publikationen\OpenBooks\05 Freeware\images\Scribus\path3065-5.png"
       inkscape:export-xdpi="300"
       inkscape:export-ydpi="300" />
    <path
       style="fill:none;stroke:#000000;stroke-width:0.90814978px;stroke-linecap:butt;stroke-linejoin:miter;stroke-opacity:1"
       d="m 162.81122,850.98658 c 18.82136,3.26697 38.04455,2.35564 57.16095,2.35564"
       id="path3047"
       inkscape:connector-curvature="0"
       inkscape:export-filename="F:\Dokumente\Publikationen\OpenBooks\05 Freeware\images\Scribus\path3065-5.png"
       inkscape:export-xdpi="300"
       inkscape:export-ydpi="300" />
    <path
       style="fill:none;stroke:#000000;stroke-width:0.90814978px;stroke-linecap:butt;stroke-linejoin:miter;stroke-opacity:1"
       d="m 182.81755,882.78775 c 10.92751,0 19.64743,0 27.15146,0"
       id="path3049"
       inkscape:connector-curvature="0"
       inkscape:export-filename="F:\Dokumente\Publikationen\OpenBooks\05 Freeware\images\Scribus\path3065-5.png"
       inkscape:export-xdpi="300"
       inkscape:export-ydpi="300" />
    <path
       style="fill:none;stroke:#000000;stroke-width:0.90814978px;stroke-linecap:butt;stroke-linejoin:miter;stroke-opacity:1"
       d="m 234.26241,885.1434 c -21.68642,-16.04859 -4.83645,44.03219 11.43219,30.62335 20.42236,-16.83239 -36.71715,-31.80118 40.01268,-31.80118 10.242,0 -2.94437,2.56909 -5.7161,9.42258 -1.97604,4.88602 6.20589,19.61926 11.43219,15.31168 21.21093,-17.48235 -13.09887,-22.03519 34.29657,-31.80118 15.93473,-3.28341 -2.1349,-38.8681 14.29024,-38.8681 2.41377,0 -7.0551,63.67654 -1.42903,68.31362 14.43469,11.89727 59.42419,-12.61225 44.29975,-18.84513 -20.82433,-8.58185 0.32994,15.58363 5.7161,20.02296 6.19243,5.10389 2.17029,-16.79498 10.00316,-20.02296 5.24307,-2.16071 42.52403,9.56544 25.72242,16.48949 -1.39787,0.57609 -5.74798,-20.02296 4.28708,-20.02296 11.84104,0 17.81071,-0.54596 24.2934,-5.88911"
       id="path3051"
       inkscape:connector-curvature="0"
       inkscape:export-filename="F:\Dokumente\Publikationen\OpenBooks\05 Freeware\images\Scribus\path3065-5.png"
       inkscape:export-xdpi="300"
       inkscape:export-ydpi="300" />
    <path
       style="fill:none;stroke:#000000;stroke-width:0.90814978px;stroke-linecap:butt;stroke-linejoin:miter;stroke-opacity:1"
       d="m 312.85872,858.0535 c 22.01376,5.88605 56.21405,13.47634 70.02218,5.88912"
       id="path3053"
       inkscape:connector-curvature="0"
       inkscape:export-filename="F:\Dokumente\Publikationen\OpenBooks\05 Freeware\images\Scribus\path3065-5.png"
       inkscape:export-xdpi="300"
       inkscape:export-ydpi="300" />
    <path
       style="fill:none;stroke:#000000;stroke-width:1px;stroke-linecap:butt;stroke-linejoin:miter;stroke-opacity:1"
       d="m 596.57143,434.6479 c -27.29614,-4.99856 -52.29041,-3.71311 -78.57143,2.85714 -84.07654,21.01914 -117.50598,156.74033 -11.42857,170 99.82669,12.47834 178.5684,-134.00091 58.57143,-170"
       id="path3057"
       inkscape:connector-curvature="0"
       inkscape:export-filename="F:\Dokumente\Publikationen\OpenBooks\05 Freeware\images\Scribus\path3065-5.png"
       inkscape:export-xdpi="300"
       inkscape:export-ydpi="300" />
    <path
       style="fill:none;stroke:#000000;stroke-width:1px;stroke-linecap:butt;stroke-linejoin:miter;stroke-opacity:1"
       d="m 322.80576,707.9592 c -3.1146,19.73857 2.83635,54.08178 -6.566,68.1853 l 2.02031,1.01015 c 7.96034,-2.27438 45.20226,-5.72695 29.7995,-26.26397 -5.26389,-7.01851 -16.56144,-9.09137 -24.74874,-9.09137 -0.7734,0 20.85566,-0.29506 25.25382,-9.09137 6.24489,-12.48979 -16.62887,-22.9466 -25.75889,-24.74874 z"
       id="path3061"
       inkscape:connector-curvature="0"
       inkscape:export-filename="F:\Dokumente\Publikationen\OpenBooks\05 Freeware\images\Scribus\path3065-5.png"
       inkscape:export-xdpi="300"
       inkscape:export-ydpi="300" />
    <path
       style="fill:none;stroke:#000000;stroke-width:1px;stroke-linecap:butt;stroke-linejoin:miter;stroke-opacity:1"
       d="m 326.84637,778.1648 c 10.62209,0.10429 27.00186,0.54452 31.8198,-9.09137 2.50283,-5.00567 4.52314,-21.67318 2.02031,-16.66752 -2.16039,4.32079 3.0243,27.28028 14.64721,15.65737 1.80535,-1.80535 5.47121,-2.18686 6.06091,-4.54569 1.58333,-6.33332 17.5254,-25.55837 14.14214,-32.32488 -0.34113,-0.68225 -9.59645,-18.21948 -9.59645,-11.61675 0,8.01707 -12.91317,46.97209 6.06092,46.97209 7.20171,0 12.14217,-9.59645 18.18274,-9.59645 4.71405,0 18.85618,0 14.14214,0 -6.04224,0 -30.67568,4.67966 -20.70813,14.64721 1.40158,1.40158 7.41409,-0.7171 8.5863,-1.01015 5.61399,-1.4035 9.66807,0.43346 14.14213,-4.04061 3.06581,-3.0658 5.22137,-43.26595 1.01015,-47.47717 -0.31832,-0.31833 4.04061,11.70879 4.04061,22.22336 0,16.60111 -0.54498,32.78178 18.18275,25.75889"
       id="path3063"
       inkscape:connector-curvature="0"
       inkscape:export-filename="F:\Dokumente\Publikationen\OpenBooks\05 Freeware\images\Scribus\path3065-5.png"
       inkscape:export-xdpi="300"
       inkscape:export-ydpi="300" />
    <path
       style="fill:none;stroke:#000000;stroke-width:1px;stroke-linecap:butt;stroke-linejoin:miter;stroke-opacity:1"
       d="m 363.21186,736.74855 c 4.57016,0.44239 5.53786,-3.8303 6.06091,-5.05076"
       id="path3065"
       inkscape:connector-curvature="0"
       inkscape:export-xdpi="300"
       inkscape:export-ydpi="300" />
    <path
       style="fill:none;stroke:#000000;stroke-width:1px;stroke-linecap:butt;stroke-linejoin:miter;stroke-opacity:1"
       d="m 185.71429,379.50504 c 0.40617,27.72093 7.52366,61.99869 10,84.28571"
       id="path3067"
       inkscape:connector-curvature="0"
       inkscape:export-filename="F:\Dokumente\Publikationen\OpenBooks\05 Freeware\images\Scribus\path3065-5.png"
       inkscape:export-xdpi="300"
       inkscape:export-ydpi="300" />
    <path
       style="fill:none;stroke:#000000;stroke-width:1px;stroke-linecap:butt;stroke-linejoin:miter;stroke-opacity:1"
       d="m 164.28571,382.36218 c 30.87012,2.5026 65.07457,-7.45963 92.85715,-11.42857"
       id="path3069"
       inkscape:connector-curvature="0"
       inkscape:export-filename="F:\Dokumente\Publikationen\OpenBooks\05 Freeware\images\Scribus\path3065-5.png"
       inkscape:export-xdpi="300"
       inkscape:export-ydpi="300" />
    <path
       style="fill:none;stroke:#000000;stroke-width:1px;stroke-linecap:butt;stroke-linejoin:miter;stroke-opacity:1"
       d="m 198.57143,452.36218 c 32.08284,11.95538 23.91266,-48.19837 10,-34.28571 -8.92908,8.92907 9.89061,40.10938 21.42857,28.57143 5.03768,-5.03769 1.65843,-20.22986 7.14286,-25.71429 33.58366,-33.58366 8.57143,48.1207 8.57143,14.28572 0,-10.49169 25.71428,-1.62482 25.71428,-20 0,-2.09821 -11.2466,8.75339 -4.28571,15.71428 27.53679,27.53679 48.04859,-43.37998 34.28571,-57.14286 -0.60566,-0.60566 -13.4569,60 21.42857,60"
       id="path3071"
       inkscape:connector-curvature="0"
       inkscape:export-filename="F:\Dokumente\Publikationen\OpenBooks\05 Freeware\images\Scribus\path3065-5.png"
       inkscape:export-xdpi="300"
       inkscape:export-ydpi="300" />
    <path
       style="fill:none;stroke:#000000;stroke-width:1px;stroke-linecap:butt;stroke-linejoin:miter;stroke-opacity:1"
       d="m 282.85714,398.07647 c 14.50794,1.61127 29.75546,-5.88343 38.57143,-7.14286"
       id="path3073"
       inkscape:connector-curvature="0"
       inkscape:export-filename="F:\Dokumente\Publikationen\OpenBooks\05 Freeware\images\Scribus\path3065-5.png"
       inkscape:export-xdpi="300"
       inkscape:export-ydpi="300" />
    <path
       style="fill:none;stroke:#000000;stroke-width:1.02736342px;stroke-linecap:butt;stroke-linejoin:miter;stroke-opacity:1"
       d="M 154.2994,675.63421 C 307.41329,639.50872 474.64829,660.34809 632.84346,660.34809"
       id="path3083"
       inkscape:connector-curvature="0"
       inkscape:export-filename="F:\Dokumente\Publikationen\OpenBooks\05 Freeware\images\Scribus\path3065-5.png"
       inkscape:export-xdpi="300"
       inkscape:export-ydpi="300" />
    <path
       style="fill:none;stroke:#000000;stroke-width:1px;stroke-linecap:butt;stroke-linejoin:miter;stroke-opacity:1"
       d="m 480,488.07647 c -6.13314,25.48562 -7.25211,48.95381 -12.85714,68.57143"
       id="path3003"
       inkscape:connector-curvature="0"
       inkscape:export-filename="F:\Dokumente\Publikationen\OpenBooks\05 Freeware\images\Scribus\path3065-5.png"
       inkscape:export-xdpi="300"
       inkscape:export-ydpi="300" />
    <path
       style="fill:none;stroke:#000000;stroke-width:1px;stroke-linecap:butt;stroke-linejoin:miter;stroke-opacity:1"
       d="m 454.28571,490.93361 c 17.07765,1.14101 38.62774,-2.46507 50,-5.71428"
       id="path3005"
       inkscape:connector-curvature="0"
       inkscape:export-filename="F:\Dokumente\Publikationen\OpenBooks\05 Freeware\images\Scribus\path3065-5.png"
       inkscape:export-xdpi="300"
       inkscape:export-ydpi="300" />
    <path
       style="fill:none;stroke:#000000;stroke-width:1px;stroke-linecap:butt;stroke-linejoin:miter;stroke-opacity:1"
       d="m 461.42857,522.36218 c 6.09679,1.66161 16.07745,-0.93825 20,-1.42857"
       id="path3007"
       inkscape:connector-curvature="0"
       inkscape:export-filename="F:\Dokumente\Publikationen\OpenBooks\05 Freeware\images\Scribus\path3065-5.png"
       inkscape:export-xdpi="300"
       inkscape:export-ydpi="300" />
    <path
       style="fill:none;stroke:#000000;stroke-width:1px;stroke-linecap:butt;stroke-linejoin:miter;stroke-opacity:1"
       d="m 478.57143,553.79075 c 37.50632,7.97414 28.0252,-76.59663 20,-68.57142 -8.36562,8.36562 -4.47931,72.23965 11.42857,64.28571 6.93344,-3.46672 4.28571,-30.60896 4.28571,-22.85714 0,6.29039 4.64759,26.78098 12.85715,18.57143 1.3797,-1.37971 -1.05313,-18.57143 0,-18.57143 2.90179,0 1.95725,22.32846 8.57143,15.71428 4.78565,-4.78565 15.71428,-19.62508 15.71428,-12.85714 0,5.73409 -14.60927,8.08609 -11.42857,12.85714 19.67633,29.5145 17.14286,-13.96182 17.14286,-12.85714 0,7.25768 11.74321,38.25679 4.28571,45.71429 -9.30428,9.30428 -27.61567,-9.04931 -8.57143,-18.57143 6.1559,-3.07795 10.27121,-18.84264 14.28572,-22.85715 2.56436,-2.56436 -7.91228,-10 -4.28572,-10 8.47833,0 9.7192,25.99509 15.71429,20 5.76891,-5.76891 16.5482,-63.86875 10,-67.14285 -21.66511,-10.83256 -9.80257,42.43899 5.71428,65.71428"
       id="path3009"
       inkscape:connector-curvature="0"
       inkscape:export-filename="F:\Dokumente\Publikationen\OpenBooks\05 Freeware\images\Scribus\path3065-5.png"
       inkscape:export-xdpi="300"
       inkscape:export-ydpi="300" />
    <path
       style="fill:none;stroke:#000000;stroke-width:1px;stroke-linecap:butt;stroke-linejoin:miter;stroke-opacity:1"
       d="m 515.71429,499.50504 c 2.36973,5.24403 -1.95243,8.78591 -2.85715,12.85714"
       id="path3011"
       inkscape:connector-curvature="0"
       inkscape:export-filename="F:\Dokumente\Publikationen\OpenBooks\05 Freeware\images\Scribus\path3065-5.png"
       inkscape:export-xdpi="300"
       inkscape:export-ydpi="300" />
    <path
       style="fill:none;stroke:#000000;stroke-width:1px;stroke-linecap:butt;stroke-linejoin:miter;stroke-opacity:1"
       d="m 524.28571,505.21933 c -0.48189,6.61808 -2.51164,6.69771 -4.28571,11.42857"
       id="path3013"
       inkscape:connector-curvature="0"
       inkscape:export-filename="F:\Dokumente\Publikationen\OpenBooks\05 Freeware\images\Scribus\path3065-5.png"
       inkscape:export-xdpi="300"
       inkscape:export-ydpi="300" />
  </g>
</svg>
